<svg xmlns="http://www.w3.org/2000/svg" xmlns:xlink="http://www.w3.org/1999/xlink" viewBox="0 0 722.83 722.83"><defs><style>.cls-1{fill:url(#New_Gradient_Swatch_copy_73);}.cls-2{fill:url(#New_Gradient_Swatch_copy_74);}.cls-3{fill:#00a2a5;}.cls-4{fill:#fec800;}.cls-5{fill:#f18416;}.cls-6{fill:#1e4a57;}.cls-7{fill:url(#New_Gradient_Swatch_copy_68);}.cls-8{fill:#fff1df;}.cls-9{fill:url(#New_Gradient_Swatch_copy_72);}.cls-10{fill:url(#New_Gradient_Swatch_copy_69);}.cls-11{fill:url(#New_Gradient_Swatch_copy_70);}.cls-12{fill:url(#New_Gradient_Swatch_copy_71);}</style><linearGradient id="New_Gradient_Swatch_copy_73" x1="708.95" y1="708.95" x2="622.1" y2="622.1" gradientUnits="userSpaceOnUse"><stop offset="0.51" stop-color="#f18416"/><stop offset="0.66" stop-color="#ef8316"/><stop offset="0.72" stop-color="#e87d15"/><stop offset="0.76" stop-color="#dd7514"/><stop offset="0.79" stop-color="#cc6813"/><stop offset="0.82" stop-color="#b65712"/><stop offset="0.84" stop-color="#9b4310"/><stop offset="0.87" stop-color="#7b2b0d"/><stop offset="0.87" stop-color="#77280d"/></linearGradient><linearGradient id="New_Gradient_Swatch_copy_74" x1="727.98" y1="727.98" x2="670.08" y2="670.08" gradientUnits="userSpaceOnUse"><stop offset="0.35" stop-color="#00a2a5"/><stop offset="0.56" stop-color="#01a0a3"/><stop offset="0.63" stop-color="#03999d"/><stop offset="0.69" stop-color="#078e93"/><stop offset="0.73" stop-color="#0d7d84"/><stop offset="0.77" stop-color="#146771"/><stop offset="0.8" stop-color="#1d4c59"/><stop offset="0.8" stop-color="#1e4a57"/></linearGradient><radialGradient id="New_Gradient_Swatch_copy_68" cx="129.92" cy="522.98" r="185.21" gradientUnits="userSpaceOnUse"><stop offset="0" stop-color="#00a2a5"/><stop offset="1" stop-color="#1e4a57"/></radialGradient><linearGradient id="New_Gradient_Swatch_copy_72" x1="368.79" y1="701.24" x2="351.37" y2="683.82" gradientUnits="userSpaceOnUse"><stop offset="0.38" stop-color="#1e4a57"/><stop offset="0.45" stop-color="#214b56"/><stop offset="0.5" stop-color="#2a4d53"/><stop offset="0.54" stop-color="#3a524e"/><stop offset="0.58" stop-color="#505848"/><stop offset="0.62" stop-color="#6d603f"/><stop offset="0.66" stop-color="#906934"/><stop offset="0.69" stop-color="#ba7527"/><stop offset="0.72" stop-color="#ea8218"/><stop offset="0.73" stop-color="#f18416"/></linearGradient><linearGradient id="New_Gradient_Swatch_copy_69" x1="450.86" y1="426.83" x2="421.65" y2="397.62" gradientUnits="userSpaceOnUse"><stop offset="0.12" stop-color="#00a2a5"/><stop offset="0.12" stop-color="#09a5a7"/><stop offset="0.15" stop-color="#37b3b2"/><stop offset="0.17" stop-color="#62c0bb"/><stop offset="0.2" stop-color="#88ccc4"/><stop offset="0.23" stop-color="#a8d6cb"/><stop offset="0.26" stop-color="#c4dfd1"/><stop offset="0.3" stop-color="#dae5d6"/><stop offset="0.34" stop-color="#ebebda"/><stop offset="0.39" stop-color="#f6eedd"/><stop offset="0.47" stop-color="#fdf0df"/><stop offset="0.67" stop-color="#fff1df"/></linearGradient><linearGradient id="New_Gradient_Swatch_copy_70" x1="663.29" y1="346.61" x2="624.67" y2="307.99" gradientUnits="userSpaceOnUse"><stop offset="0.51" stop-color="#f18416"/><stop offset="0.67" stop-color="#ef8316"/><stop offset="0.73" stop-color="#e87d15"/><stop offset="0.78" stop-color="#dd7514"/><stop offset="0.81" stop-color="#cc6813"/><stop offset="0.84" stop-color="#b65712"/><stop offset="0.87" stop-color="#9b4310"/><stop offset="0.89" stop-color="#7b2b0d"/><stop offset="0.89" stop-color="#77280d"/></linearGradient><linearGradient id="New_Gradient_Swatch_copy_71" x1="699.38" y1="356.57" x2="660.71" y2="317.9" gradientUnits="userSpaceOnUse"><stop offset="0.27" stop-color="#fec800"/><stop offset="0.51" stop-color="#fcc600"/><stop offset="0.6" stop-color="#f6bf01"/><stop offset="0.66" stop-color="#eab403"/><stop offset="0.71" stop-color="#daa306"/><stop offset="0.75" stop-color="#c58d09"/><stop offset="0.79" stop-color="#ab720d"/><stop offset="0.82" stop-color="#8d5312"/><stop offset="0.82" stop-color="#8c5212"/></linearGradient></defs><title>Abstract 5</title><g id="Abstract_5" data-name="Abstract 5"><g id="Main_composition-6" data-name="Main composition"><polygon class="cls-1" points="555.1 722.83 722.83 722.83 722.83 555.1 555.1 722.83"/><polygon class="cls-2" points="643.34 722.83 722.83 722.83 722.83 643.34 643.34 722.83"/><path class="cls-3" d="M488.3,309.66l-98.85,98.85c-15.86,15.86-37.83-7.22-22.52-22.52L547.86,205.06c3.78-3.79,4-9.8.39-13.37s-9.58-3.39-13.37.39L377.27,349.69l-18.21-18.21c-28.7,28.7-67.13-13.51-40.32-40.32,24.43-24.43,43.15-43.37,43.15-43.37A8.39,8.39,0,1,0,350.05,236L171.3,414.89a6.62,6.62,0,1,0,9.34,9.34L196.91,408a6.62,6.62,0,1,1,9.35,9.34l-71.5,71.5a6.61,6.61,0,1,0,9.34,9.33l97.53-97.53a6.62,6.62,0,1,1,9.34,9.34l-68,68a6.62,6.62,0,1,0,9.34,9.34l77.18-77.18a6.62,6.62,0,1,1,9.34,9.34l-69.3,69.3a6.62,6.62,0,1,0,9.34,9.34l45.44-45.44a6.62,6.62,0,1,1,9.34,9.34l-66.54,66.52a6.62,6.62,0,1,0,9.34,9.34l117.1-117.1a6.62,6.62,0,1,1,9.34,9.34L50.13,722.83H68.82L270.54,521.11a6.62,6.62,0,1,1,9.34,9.34L199.73,610.6a6.61,6.61,0,1,0,9.34,9.33L335,494a6.62,6.62,0,1,1,9.34,9.34l-97.11,97.1a6.62,6.62,0,1,0,9.34,9.34l265.8-266c9.78-9.79,9.68-25.91.45-35.13S498.08,299.88,488.3,309.66Z"/><path class="cls-4" d="M323.58,385.16c-5-5-13.46-4.77-18.78.55l-189,189c-5.32,5.32-5.56,13.77-.55,18.78s13.46,4.77,18.77-.55l189-189C328.34,398.62,328.59,390.17,323.58,385.16Z"/><path class="cls-4" d="M650,459.38,527.81,581.56c-72.3,72.3-170.27-29.34-99.8-99.81s260-260.44,260-260.44c6.32-6.32,6.61-16.36.66-22.32s-16-5.66-22.31.66L256.59,609.77a6.62,6.62,0,1,1-9.34-9.34l97.11-97.1A6.62,6.62,0,1,0,335,494L209.07,619.93a6.61,6.61,0,1,1-9.34-9.33l80.15-80.15a6.62,6.62,0,1,0-9.34-9.34L68.82,722.83h417.4l213.61-213.6c14.83-14.84,15.52-38.41,1.53-52.4S664.82,444.55,650,459.38Z"/><path class="cls-5" d="M128,514a6.42,6.42,0,1,0-9.06-9.06l-14.87,15.24a6.42,6.42,0,1,0,9.06,9.06Z"/><path class="cls-3" d="M165,430.85a6.63,6.63,0,0,0-9.33.28L149.18,438a6.42,6.42,0,1,0,9.06,9.07l6.47-6.83A6.64,6.64,0,0,0,165,430.85Z"/><path class="cls-6" d="M304.2,496.13c-5-5-13.46-4.76-18.77.55L59.27,722.83h9.55L270.54,521.11a6.62,6.62,0,1,1,9.34,9.34L199.73,610.6a6.89,6.89,0,0,0-.79,9L303.65,514.91C309,509.59,309.22,501.15,304.2,496.13Z"/><path class="cls-6" d="M652.65,37.86,279.86,410.65a6.93,6.93,0,0,1-1,8.75l-69.3,69.3a6.62,6.62,0,1,0,9.34,9.34l45.44-45.44a6.83,6.83,0,0,1,9.62-.28,3.73,3.73,0,0,1,.32.36L670.88,56.08C683.49,43.48,665,25.5,652.65,37.86Z"/><path class="cls-7" d="M247.85,384c-5-5-13.46-4.76-18.78.55l-22.82,22.83c.09.08.19.16.29.26a6.83,6.83,0,0,1-.28,9.62l-71.5,71.5a6.61,6.61,0,1,0,9.34,9.33l97.53-97.53a7,7,0,0,1,8.25-1.3A13,13,0,0,0,247.85,384Z"/><path class="cls-8" d="M246.16,609.05a6.94,6.94,0,0,1,1.09-8.62l97.11-97.1A6.62,6.62,0,1,0,335,494L209.07,619.93a6.61,6.61,0,1,1-9.34-9.33l80.15-80.15a6.94,6.94,0,0,0,1.11-8.59L171.62,631.24c-19.94,19.94,7.3,45,26.71,25.64Z"/><path class="cls-6" d="M198.35,722.83l132.2-132.2c6-6,6.29-15.56.63-21.22S316,564,310,570l-152.8,152.8Z"/><path class="cls-3" d="M382.35,581.94c3.79-3.79,4-9.8.4-13.37s-9.59-3.39-13.37.39L215.5,722.83h26Z"/><path class="cls-8" d="M387,626.25a6.3,6.3,0,1,0-8.89-8.89L272.58,722.83h17.79Z"/><path class="cls-3" d="M662.88,570,510,722.83h17.31L671.53,578.65a6.13,6.13,0,1,0-8.65-8.65Z"/><path class="cls-6" d="M664,496.84l-226,226h25.31L676.69,509.49A9,9,0,1,0,664,496.84Z"/><path class="cls-5" d="M421.86,624.66l-98.17,98.17h60.45l67.94-67.94c8.82-8.82,9.23-22.83.92-31.14S430.68,615.84,421.86,624.66Z"/><path class="cls-6" d="M369,656.43l-66.4,66.4h40.89l46-46c6-6,6.25-15.44.62-21.07S375,650.47,369,656.43Z"/><path class="cls-9" d="M390.39,656.13l-66.7,66.7h19.84l46-46C395.34,671,395.7,661.79,390.39,656.13Z"/><path class="cls-4" d="M722.83,577.48l-97.2,97.2c-5.87,5.87-6.15,15.21-.61,20.74s14.88,5.27,20.75-.61l77.06-77.06Z"/><path class="cls-4" d="M722.83,46.05,376,392.91a4.39,4.39,0,1,0,6.2,6.2L722.83,58.46Z"/><path class="cls-5" d="M650.48,0,523,127.44a6.56,6.56,0,1,0,9.26,9.26L669,0Z"/><path class="cls-5" d="M195.9,557.48,30.54,722.83H37.8L199.52,561.11a2.57,2.57,0,1,0-3.62-3.63Z"/><path class="cls-5" d="M350.26,626.55,254,722.83h7.26l92.65-92.65a2.57,2.57,0,1,0-3.62-3.63Z"/><path class="cls-6" d="M722.83,87.63,569.11,241.35a2.57,2.57,0,1,0,3.62,3.63L722.83,94.89Z"/><path class="cls-5" d="M722.83,104.77l-184,184a6.67,6.67,0,1,0,9.41,9.41L722.83,123.59Z"/><path class="cls-5" d="M722.83,206.44,540.59,388.69c-5,5-5.2,12.86-.52,17.54s12.58,4.45,17.54-.51L722.83,240.49Z"/><path class="cls-8" d="M625.51,510.93l-211.9,211.9h7.48L629.26,514.67a2.65,2.65,0,1,0-3.75-3.74Z"/><polygon class="cls-4" points="555.1 722.83 722.83 555.1 722.83 542.7 542.7 722.83 555.1 722.83"/><path class="cls-8" d="M304.82,383.7a6.63,6.63,0,0,0-9.33.27l-7.12,7.48a6.42,6.42,0,1,0,9.06,9.06l7.12-7.48A6.63,6.63,0,0,0,304.82,383.7Z"/><path class="cls-8" d="M325.37,575.23c-2.49-2.49-6.51-2.19-9.15.45l-44.44,44.44a6.62,6.62,0,0,0-.28,9.33c2.49,2.5,6.52,2.19,9.16-.45l44.44-44.44A6.63,6.63,0,0,0,325.37,575.23Z"/><path class="cls-4" d="M311.77,248.9a4.7,4.7,0,0,0-6.68.33l-70.3,70.3a4.83,4.83,0,0,0-.2,6.81,4.68,4.68,0,0,0,6.68-.33l70.3-70.29A4.84,4.84,0,0,0,311.77,248.9Z"/><path class="cls-8" d="M373.11,465c-2.59-2.6-6.78-2.28-9.53.47L352.1,477a6.9,6.9,0,0,0-.28,9.72c2.59,2.6,6.78,2.28,9.54-.47l11.47-11.47A6.9,6.9,0,0,0,373.11,465Z"/><path class="cls-8" d="M474.49,389c-7.42-7.43-19.4-6.53-27.27,1.35l-32.83,32.82c-7.87,7.88-8.24,20.4-.81,27.82s19.41,6.53,27.28-1.34l32.84-32.82C481.57,409,481.93,396.43,474.49,389Z"/><path class="cls-10" d="M474.49,389c-7.42-7.43-19.4-6.53-27.27,1.35l-32.83,32.82c-7.87,7.88-8.24,20.4-.81,27.82.28.29.58.53.87.79l61.32-61.36A18.85,18.85,0,0,0,474.49,389Z"/><path class="cls-4" d="M379.94,270c-6.08-6.08-15.89-5.34-22.34,1.11L330.71,298c-6.46,6.45-6.76,16.7-.67,22.78s15.9,5.35,22.35-1.1l26.89-26.89C385.73,286.34,386,276.08,379.94,270Z"/><path class="cls-3" d="M722.83,223.32,448.37,497.78c-18.84,18.84-19.72,48.78-1.95,66.55s46.42,15.62,65.26-3.23L722.83,350Z"/><path class="cls-11" d="M540.07,406.23c4.68,4.68,12.58,4.45,17.54-.51L722.83,240.49V223.32L540,406.15Z"/><path class="cls-6" d="M722.83,277.6l-243,243c-5.94,5.94-6.22,15.38-.62,21s15,5.33,21-.62L722.83,318.34Z"/><path class="cls-4" d="M722.83,255.28,620.47,357.65c-6.18,6.18-6.47,16-.64,21.85s15.66,5.55,21.85-.65l81.15-81.15Z"/><path class="cls-12" d="M641.68,378.85l81.15-81.15V277.6L620.41,380C626.3,385.29,635.69,384.85,641.68,378.85Z"/></g></g></svg>