<svg xmlns="http://www.w3.org/2000/svg" xmlns:xlink="http://www.w3.org/1999/xlink" viewBox="0 0 722.83 722.83"><defs><style>.cls-1{fill:#fff2e1;}.cls-2{fill:#ee756d;}.cls-3{fill:#2b1e3f;}.cls-4{fill:#00a3b2;}.cls-5{fill:url(#New_Gradient_Swatch_copy_7);}.cls-6{fill:url(#New_Gradient_Swatch_copy_4);}.cls-7{fill:url(#New_Gradient_Swatch_copy_3);}.cls-8{fill:url(#New_Gradient_Swatch_copy);}.cls-9{fill:url(#New_Gradient_Swatch_copy_5);}.cls-10{fill:url(#New_Gradient_Swatch_copy_6);}.cls-11{fill:url(#New_Gradient_Swatch);}.cls-12{fill:url(#New_Gradient_Swatch_copy_8);}</style><linearGradient id="New_Gradient_Swatch_copy_7" x1="597.47" y1="406.63" x2="564.8" y2="439.3" gradientUnits="userSpaceOnUse"><stop offset="0.24" stop-color="#00a3b2"/><stop offset="0.26" stop-color="#029dad"/><stop offset="0.39" stop-color="#107086"/><stop offset="0.51" stop-color="#1c4c67"/><stop offset="0.63" stop-color="#243351"/><stop offset="0.74" stop-color="#292344"/><stop offset="0.82" stop-color="#2b1e3f"/></linearGradient><linearGradient id="New_Gradient_Swatch_copy_4" x1="513.22" y1="346.9" x2="602.28" y2="257.85" gradientUnits="userSpaceOnUse"><stop offset="0.19" stop-color="#00a3b2"/><stop offset="0.36" stop-color="#01a1b0"/><stop offset="0.45" stop-color="#0399a9"/><stop offset="0.51" stop-color="#088c9e"/><stop offset="0.57" stop-color="#0e798e"/><stop offset="0.63" stop-color="#166078"/><stop offset="0.67" stop-color="#1f435f"/><stop offset="0.72" stop-color="#2a2040"/><stop offset="0.72" stop-color="#2b1e3f"/></linearGradient><linearGradient id="New_Gradient_Swatch_copy_3" x1="414.69" y1="229.69" x2="471.99" y2="172.4" gradientUnits="userSpaceOnUse"><stop offset="0.34" stop-color="#00a3b2"/><stop offset="0.41" stop-color="#039aab"/><stop offset="0.54" stop-color="#0a8396"/><stop offset="0.7" stop-color="#175c75"/><stop offset="0.89" stop-color="#282847"/><stop offset="0.92" stop-color="#2b1e3f"/></linearGradient><linearGradient id="New_Gradient_Swatch_copy" x1="541.92" y1="180.91" x2="636.59" y2="86.24" gradientUnits="userSpaceOnUse"><stop offset="0.25" stop-color="#00a3b2"/><stop offset="0.42" stop-color="#01a1b0"/><stop offset="0.51" stop-color="#0399a9"/><stop offset="0.58" stop-color="#088c9e"/><stop offset="0.64" stop-color="#0e798e"/><stop offset="0.69" stop-color="#166078"/><stop offset="0.74" stop-color="#1f435f"/><stop offset="0.78" stop-color="#2a2040"/><stop offset="0.78" stop-color="#2b1e3f"/></linearGradient><linearGradient id="New_Gradient_Swatch_copy_5" x1="696.04" y1="213.54" x2="655.16" y2="254.42" gradientUnits="userSpaceOnUse"><stop offset="0.29" stop-color="#00a3b2"/><stop offset="0.43" stop-color="#088b9e"/><stop offset="0.71" stop-color="#1b4f69"/><stop offset="0.91" stop-color="#2b1e3f"/></linearGradient><linearGradient id="New_Gradient_Swatch_copy_6" x1="174.92" y1="239.92" x2="221.95" y2="192.9" gradientUnits="userSpaceOnUse"><stop offset="0.31" stop-color="#00a3b2"/><stop offset="0.32" stop-color="#029dad"/><stop offset="0.46" stop-color="#107086"/><stop offset="0.6" stop-color="#1c4c67"/><stop offset="0.72" stop-color="#243351"/><stop offset="0.83" stop-color="#292344"/><stop offset="0.92" stop-color="#2b1e3f"/></linearGradient><linearGradient id="New_Gradient_Swatch" x1="623.96" y1="14.29" x2="583.53" y2="54.71" gradientUnits="userSpaceOnUse"><stop offset="0" stop-color="#00a3b2"/><stop offset="0.02" stop-color="#0399aa"/><stop offset="0.08" stop-color="#0e788d"/><stop offset="0.15" stop-color="#175c75"/><stop offset="0.23" stop-color="#1e4561"/><stop offset="0.31" stop-color="#243452"/><stop offset="0.42" stop-color="#282747"/><stop offset="0.57" stop-color="#2a2041"/><stop offset="0.92" stop-color="#2b1e3f"/></linearGradient><linearGradient id="New_Gradient_Swatch_copy_8" x1="629.1" y1="685.1" x2="667.6" y2="646.6" gradientUnits="userSpaceOnUse"><stop offset="0.14" stop-color="#00a3b2"/><stop offset="0.17" stop-color="#029dad"/><stop offset="0.49" stop-color="#185972"/><stop offset="0.72" stop-color="#262e4d"/><stop offset="0.84" stop-color="#2b1e3f"/></linearGradient></defs><title>Abstract 1</title><g id="Abstract_1" data-name="Abstract 1"><g id="Background-9" data-name="Background"><polygon class="cls-1" points="722.84 558.22 722.84 0 164.61 0 722.84 558.22"/></g><g id="Main_composition-10" data-name="Main composition"><path class="cls-2" d="M252.49,0l257,257a29.22,29.22,0,1,0,41.32-41.32L335.13,0Z"/><path class="cls-3" d="M0,32.86v82.65L275.42,390.92a29.22,29.22,0,0,0,41.32-41.32Z"/><path class="cls-3" d="M429.82,425a29.21,29.21,0,0,0,0,41.32L530.25,566.76a29.22,29.22,0,1,0,41.32-41.32L471.14,425A29.22,29.22,0,0,0,429.82,425Z"/><polygon class="cls-3" points="378.78 0 722.83 344.06 722.83 307.63 415.2 0 378.78 0"/><path class="cls-1" d="M75.21,0h82.64L372.34,214.5A29.22,29.22,0,0,1,331,255.82Z"/><path class="cls-1" d="M93.06,240.61a29.22,29.22,0,0,1-41.32,41.32L0,230.2V147.55Z"/><path class="cls-4" d="M193.36,419.26a29.21,29.21,0,0,0,0,41.32L431.89,699.12a29.22,29.22,0,1,0,41.32-41.32L234.68,419.26A29.22,29.22,0,0,0,193.36,419.26Z"/><path class="cls-1" d="M343.9,722.84l-74-74.05a29.22,29.22,0,0,1,41.33-41.32L426.54,722.84Z"/><path class="cls-3" d="M183.68,668.18a29.22,29.22,0,0,0-41.33,41.33l13.33,13.32h82.65Z"/><path class="cls-1" d="M577,722.84l-36.4-36.4A29.22,29.22,0,0,1,582,645.11l77.72,77.73Z"/><path class="cls-2" d="M639,722.84,478.71,562.58A29.22,29.22,0,0,1,520,521.26L721.61,722.84Z"/><path class="cls-4" d="M496.92,405.94a29.22,29.22,0,0,1,41.33-41.33L722.83,549.2v82.65Z"/><path class="cls-4" d="M591.64,234.72A29.22,29.22,0,1,1,633,193.4l89.87,89.87v82.65Z"/><path class="cls-2" d="M144.42,0,624.88,480.46a29.22,29.22,0,0,0,41.32-41.32L227.06,0Z"/><path class="cls-5" d="M538.25,364.61a29.24,29.24,0,0,0-34.37-5.15l121,121a29.22,29.22,0,0,0,34.37,5.15Z"/><path class="cls-6" d="M405.58,116.63A29.22,29.22,0,1,0,364.26,158L722.83,516.53V433.88Z"/><path class="cls-3" d="M356.72,129.66A29.21,29.21,0,0,0,364.26,158L673.74,467.43a29.19,29.19,0,0,0-7.54-28.29Z"/><path class="cls-7" d="M405.58,116.63a29.21,29.21,0,0,0-38.74-2.28L509.52,257a29.21,29.21,0,0,0,38.75,2.28Z"/><polygon class="cls-8" points="497.85 0 415.2 0 722.83 307.63 722.83 224.99 497.85 0"/><path class="cls-9" d="M601.94,186.74,722.83,307.63V283.27L633,193.4A29.22,29.22,0,0,0,601.94,186.74Z"/><polygon class="cls-2" points="522.06 0 722.83 200.78 722.83 118.13 604.71 0 522.06 0"/><polygon class="cls-4" points="658.06 0 722.83 64.78 722.83 0 658.06 0"/><path class="cls-2" d="M170.74,356.57a29.22,29.22,0,0,0,0,41.32l75.37,75.37a29.22,29.22,0,0,0,41.32-41.32l-75.37-75.37A29.22,29.22,0,0,0,170.74,356.57Z"/><path class="cls-1" d="M143.25,173.64a29.22,29.22,0,0,0,0,41.33L243.68,315.41A29.22,29.22,0,0,0,285,274.08L184.57,173.64A29.22,29.22,0,0,0,143.25,173.64Z"/><path class="cls-3" d="M193.36,419.26c-.22.21-.4.44-.6.65l53.35,53.35a29.22,29.22,0,0,0,41.32,0c.21-.21.39-.44.6-.66l-53.35-53.34A29.22,29.22,0,0,0,193.36,419.26Z"/><path class="cls-4" d="M71.17,62.71a29.22,29.22,0,0,0,0,41.32L219.31,252.18a29.22,29.22,0,0,0,41.32-41.33L112.49,62.71A29.22,29.22,0,0,0,71.17,62.71Z"/><path class="cls-10" d="M261.82,250.9l-77.25-77.26a29.22,29.22,0,0,0-41.32,0c-.42.42-.81.84-1.2,1.28l77.26,77.26a29.22,29.22,0,0,0,41.32,0C261,251.76,261.44,251.34,261.82,250.9Z"/><path class="cls-3" d="M0,279.29v82.65L102.74,464.67a29.22,29.22,0,0,0,41.32-41.32Z"/><path class="cls-3" d="M553.62,0h82.65L658.9,22.64A29.22,29.22,0,0,1,617.58,64Z"/><path class="cls-11" d="M658.9,64a28.92,28.92,0,0,0,4.3-5.47L604.71,0H553.62l64,64A29.22,29.22,0,0,0,658.9,64Z"/><path class="cls-4" d="M98.28,0h82.64l65.14,65.14a29.22,29.22,0,0,1-41.32,41.32Z"/><path class="cls-3" d="M246.06,65.14,180.92,0h-36.5l103.9,103.91A29.22,29.22,0,0,0,246.06,65.14Z"/><path class="cls-4" d="M621.24,620.07a29.22,29.22,0,0,0,0,41.32L652.81,693a29.22,29.22,0,0,0,41.32-41.32l-31.57-31.57A29.22,29.22,0,0,0,621.24,620.07Z"/><path class="cls-12" d="M692.9,694.12,620.08,621.3a29.21,29.21,0,0,0,1.16,40.09L652.81,693A29.22,29.22,0,0,0,692.9,694.12Z"/><path class="cls-2" d="M350.9,298.73a29.23,29.23,0,0,0,0,41.33l38.65,38.65a29.22,29.22,0,0,0,41.33-41.32l-38.65-38.66A29.23,29.23,0,0,0,350.9,298.73Z"/><path class="cls-2" d="M106.83,546.45a29.22,29.22,0,0,0,0,41.32l22.45,22.45a29.22,29.22,0,1,0,41.32-41.33l-22.45-22.44A29.22,29.22,0,0,0,106.83,546.45Z"/><path class="cls-2" d="M621.69,309.66A29.22,29.22,0,1,1,663,268.34l59.82,59.82v82.65Z"/><path class="cls-3" d="M722.83,378l-8.51-8.52A29.22,29.22,0,0,0,673,410.79l49.83,49.84Z"/></g></g></svg>