<svg xmlns="http://www.w3.org/2000/svg" viewBox="0 0 299.9 466.28"><defs><style>.cls-1{fill:#00a2a5;fill-rule:evenodd;}</style></defs><title>loginForm</title><g id="Summer_Poster_1" data-name="Summer Poster 1"><g id="Splash"><path class="cls-1" d="M179.41,460.55c1.84,3.57,8.76,4.47,12.26,1.95,7.94-5.73,7.33-37.34-5.37-35.61-1.9.26-4.92,2.25-4.48,4.91.25,1.56,4.41.66,5,1.66C193.13,443.53,174,450.17,179.41,460.55Zm22.42-72c5.24-3.71,1.32-16.32-4.21-12.46C193.71,378.76,194.74,393.52,201.83,388.51Zm-96-44c-2.87-.95-6.26,3.37-6.68,4-2.74,4.26-3,11.86-6.69,16-4.33,4.82-11.91,6.44-16.9,10.22-7.08,5.37-14.44,15.08-12.88,28.45.46,4,3.18,9,6.62,9.47,11.48,1.69,11.48-19.89,15.92-27.2,3.23-5.33,11.53-10.36,15.15-15.67C102.52,366.62,112.88,346.81,105.85,344.5ZM71.39,419.61c-9-3.48-8.23,13.78,0,10.78C75.14,429.05,75.5,421.2,71.39,419.61ZM247.9,311.47c9.9-2.75-7.8-16.94-7.47-6.79C240.5,307,244.55,312.41,247.9,311.47Zm2.47-85.8c1.36.76,2.36,3.17,3.74,3.21,5.49.17,2.69-13.39-3.88-10.53-2.69,1.17-4.32,4.62-2.73,6.93C248,226.07,249.51,225.2,250.37,225.67Zm3.69-29.92c10.55-.28,5.67-28-5.43-22.13-2.83,1.49-.59,6.46-.73,10.38-.09,2.48-1.45,4.63-1,6.51C247.52,193,251.66,195.82,254.06,195.75ZM49.31,168.55c6.86-.1,5-13.35.11-15C40.12,150.35,42.58,168.64,49.31,168.55ZM1.07,145.16c-2.56,2.68-.08,8.42,2.79,9C11.46,155.49,7.32,138.62,1.07,145.16Zm141.17-141c-43.6,13.9-70.63,68.06-74.93,74.46-2.61,3.88-6.6,11.15-7.52,17.47-.51,3.6-.23,7,2.46,7.4,7.3,1.2,5.49-14.19,11.64-14.26,3.37,0,5.78,5.53,4.64,10.94-1.78,8.55-11.82,10.39-18.6,15.18-5.52,3.89-10,8.34-11.66,14.63s-1.51,14,4.16,14c5.31,0,3.77-9,11-6.95,4.41,1.24-2.22,9.55,1.2,10.44,6.2,1.61,4.18-9.94,11.46-8.86,3.19.47,5.31,5.25,5.08,9.41-.5,9.09-11,21.39-11.83,31.57-.64,7.34,7.09,8.54,6.5,12.92-.44,3.31-6.32,3.6-6.81,7.87-.73,6.37,6.91,5.75,7.35,10.64,0,4.69-2.73,9.75-2.4,14.55.58,8.63,11.07,18.24,18.41,13.71,5.28-3.26-6.34-16.43-.08-20.8,3.12-2.18,8.92,1,9.49,4.17.66,3.71-3.45,9.52-2,13,1.2,2.84,6.25,2.91,6.36,6,.17,5.48-7.38,5.18-8.44,10.5a8.41,8.41,0,0,0,7.36,10.27c7.49.54,13.11-6.73,13.17-13.82.06-7.71-8.13-13-7.08-18.72.53-2.93,6.65-8.42,9.74-3.53,2.19,3.46-1.33,8.92,3.15,9.74,2.64.48,5.78-1.77,6.68-4,5.44-13.68-20.32-20.83-17.33-34.85.87-4.09,7.67-7.68,12.11-5.37,4.28,2.22,1.13,12.66,6.53,12.15,2.7-.25,2-5,3.74-8,1.85-3.23,5.73-5.28,12.07-4.23,6.74,1.13,18.46,8.71,18.7,16.8.2,6.8-10.42,11.75-8.28,17.44a5.66,5.66,0,0,0,4.91,2.86c6.1.11,6.31-9.46,12.63-9.21,5.54.23,9.07,8.81,7.62,14.12C181.24,242,170,237.08,161,238.49c-11.06,1.75,3.08,22.54-4.77,27.58-2.59,1.66-6.22,1.32-10.06,1.59-2,.14-4.69-.88-5.08,2.14-.52,4,5.91,5,5.86,9.05-.11,9.15-16,8.32-22.68,10.42-8.14,2.56-18.68,10.81-22.18,18.52-2.14,4.68-2.93,11.48.64,15.42,7.28,8.07,13-7.19,17.57-7.12,7.55.13,2.62,8.59.41,10.8-3.81,3.81-12,12.86-8.64,16,3.76,3.46,9.7-4.19,13.59-2.74,3.55,1.32.88,7.07-1.13,10.75-2.45,4.48-4,7.33-5.73,10.2-4.4,7.27-9.85,14.09-12.19,19.24-3.38,7.43.66,21.21,8.16,21.07,8.71-.17,5.53-16.44,12.86-16.14,3.83.17,5.12,6.43,3.51,10.13-1.31,3.05-6,5-8,9.37-1.89,4-.74,9.34-3.46,11.44-3.8,1.45-7.46-1.79-11.54-.39-3.86,1.32-7.13,8.58-5.44,12.91.9,2.3,6,2.92,7.52,5.64,2.79,5-2.53,11.55-2.53,18,0,5.16,4.4,12,8.8,13.39,4.17,1.33,10.68.11,12.86-4.58,3.11-6.66-3.73-10.55-.92-18.52.64-1.82,3.89-2.34,6.59-1.32,2.93,1.11,1.93,7.48,5.92,7.13,1.78-.15,4.51-5.27,4.89-7.92.55-3.87-1-7.59-1.16-11.6-.48-11.41,4.59-23.06,14.53-19.93,6.3,2,10,13.62,17.7,12.14,4.95-.94,8.57-9.14,7-14.4-.66-2.22-3.16-5.81-5.55-6.73-3.26-1.25-7-.28-8.81-1.45-5.68-3.56-2.6-18,5.22-18.31,3.92-.17,8.32,4.6,13,3.51,3.64-.84,3.65-6.44,5-10.61,1.72-5.41,4.31-11.31,11.5-10,10,1.8,9.16,30.33,20.67,15.32,5-6.51-1.36-25.57,7.06-27.11,3.89-.71,6.46,4.69,9.58,1.47,2.93-3-.72-7.32-.4-11.18.47-5.53,6.12-11.74,2.12-17.26-4.29-5.9-15.27-3.7-16.93-12.11-2.09-10.57,5.46-18.66,19.19-21.32,13.56-2.62,4.15-24.55-4.72-31.73-4.66-3.77-10.29-6-12.35-10.81-2-4.58-.74-14,4.71-14.09,4.09,0,6.31-1.34,3.2-3.75a6.46,6.46,0,0,1-1.66-8.14c1.44-2.77,7.43.53,8.16-2.05,1.76-6.23-7.43-5.94-11.67-8.08-9.53-4.81-17.43-16.71-17.92-28.71-.41-10.07,4.45-19.75,9.28-24.34,1.26-1.2,4.05-3.37,6.67-3.63,10-1,10.87,12,19.23,12.19,11,.3,2-20.81,11.07-20,2.21.18,2.14,5.11,4.08,4.76,5.81-1.47,2.69-12.75,8.48-12.05,11.14,1.35.18,20.51,7,22.68,12.65,4,16-9.54,18.66-21.61C316.21,55.8,214-18.68,142.24,4.18Zm-121,203.64c-2.5,2,.43,8.18,4.11,6.64C28.85,213,25.84,204.18,21.29,207.82Zm45.32,54.11a11.84,11.84,0,0,0-3.15,2.21c-6.09,6.82,4.46,25.16-4.74,26.8-12.85,2.3-6.3,17.76,2.17,15.87,3.68-.83,4-8.44,5.72-9.83,3.25-2.63,7.74-.58,12.39-1.9C96.28,290.16,86.32,253.24,66.61,261.93Zm-22,46.65c-8.19-3-7.85,9.8-2.65,10.31S50,310.49,44.66,308.58Z"/></g></g></svg>